<svg width="25" height="25" viewBox="0 0 25 25" fill="none" xmlns="http://www.w3.org/2000/svg">
<path d="M20.4597 9.25336C19.7897 8.51336 18.7797 8.08336 17.3797 7.93336V7.17336C17.3797 5.80336 16.7997 4.48336 15.7797 3.56336C14.7497 2.62336 13.4097 2.18336 12.0197 2.31336C9.62975 2.54336 7.61975 4.85336 7.61975 7.35336V7.93336C6.21975 8.08336 5.20975 8.51336 4.53975 9.25336C3.56975 10.3334 3.59975 11.7734 3.70975 12.7734L4.40975 18.3434C4.61975 20.2934 5.40975 22.2934 9.70975 22.2934H15.2897C19.5897 22.2934 20.3797 20.2934 20.5897 18.3534L21.2897 12.7634C21.3997 11.7734 21.4197 10.3334 20.4597 9.25336ZM12.1597 3.70336C13.1597 3.61336 14.1097 3.92336 14.8497 4.59336C15.5797 5.25336 15.9897 6.19336 15.9897 7.17336V7.87336H9.00975V7.35336C9.00975 5.57336 10.4797 3.86336 12.1597 3.70336ZM8.91975 13.4434H8.90975C8.35975 13.4434 7.90975 12.9934 7.90975 12.4434C7.90975 11.8934 8.35975 11.4434 8.90975 11.4434C9.46975 11.4434 9.91975 11.8934 9.91975 12.4434C9.91975 12.9934 9.46975 13.4434 8.91975 13.4434ZM15.9197 13.4434H15.9097C15.3597 13.4434 14.9097 12.9934 14.9097 12.4434C14.9097 11.8934 15.3597 11.4434 15.9097 11.4434C16.4697 11.4434 16.9197 11.8934 16.9197 12.4434C16.9197 12.9934 16.4697 13.4434 15.9197 13.4434Z" fill="white"/>
</svg>
