<svg width="85" height="22" viewBox="0 0 85 22" fill="none" xmlns="http://www.w3.org/2000/svg">
<path d="M5.20509 1.84426V11.1729H3.33486V1.84426H0V0.154297H8.53995V1.84426H5.20509Z" fill="black"/>
<path d="M13.8561 11.1729V0.154297H15.7263V4.93126H21.1792V0.154297H23.0495V11.1729H21.1792V6.66629H15.7263V11.1729H13.8561Z" fill="black"/>
<path d="M30.9412 8.67171L29.837 11.1729H27.8542L32.7213 0.154297H34.7041L39.5487 11.1729H37.5658L36.4617 8.67171H30.9412ZM35.7181 6.93668L33.7127 2.40758L31.7073 6.93668H35.7181Z" fill="black"/>
<path d="M52.6313 0.154297H54.479V11.1729H52.4736L46.232 3.12863V11.1729H44.3618V0.154297H46.232L52.6313 8.37878V0.154297Z" fill="black"/>
<path d="M62.386 8.67171L61.2819 11.1729H59.299L64.1661 0.154297H66.149L70.9936 11.1729H69.0107L67.9065 8.67171H62.386ZM67.163 6.93668L65.1575 2.40758L63.1521 6.93668H67.163Z" fill="black"/>
<path d="M80.3357 9.52796C81.192 9.52796 81.8679 9.23503 82.3637 8.64918C82.8744 8.06332 83.1298 7.26716 83.1298 6.2607V0.154297H85V6.3283C85 7.89057 84.5719 9.10735 83.7156 9.97862C82.8594 10.8499 81.7327 11.2855 80.3357 11.2855C78.9387 11.2855 77.812 10.8499 76.9558 9.97862C76.0995 9.10735 75.6714 7.89057 75.6714 6.3283V0.154297H77.5191V6.2607C77.5191 7.28219 77.7745 8.07835 78.2852 8.64918C78.7809 9.23503 79.4644 9.52796 80.3357 9.52796Z" fill="black"/>
<path d="M6.75195 19.1572H14.0976" stroke="#202020" stroke-width="0.472222" stroke-linecap="round"/>
<path d="M20.141 20.3042C20.1518 20.3042 20.1572 20.3149 20.1572 20.3364C20.1572 20.3579 20.1518 20.3686 20.141 20.3686C20.0802 20.3686 19.9888 20.365 19.8671 20.3579C19.7238 20.3507 19.6128 20.3471 19.534 20.3471C19.4552 20.3471 19.3514 20.3507 19.2225 20.3579C19.1079 20.365 19.0201 20.3686 18.9593 20.3686C18.9449 20.3686 18.9378 20.3579 18.9378 20.3364C18.9378 20.3149 18.9449 20.3042 18.9593 20.3042C19.0882 20.3042 19.1795 20.2916 19.2332 20.2666C19.2869 20.2415 19.3138 20.1985 19.3138 20.1376C19.3138 20.0911 19.2959 20.0177 19.2601 19.9174L18.7766 18.5959H17.8795L17.4444 19.6595C17.3764 19.8279 17.3424 19.9586 17.3424 20.0517C17.3424 20.1484 17.3764 20.2146 17.4444 20.2504C17.5161 20.2862 17.6217 20.3042 17.7614 20.3042C17.7757 20.3042 17.7829 20.3149 17.7829 20.3364C17.7829 20.3579 17.7739 20.3686 17.756 20.3686C17.713 20.3686 17.6271 20.365 17.4982 20.3579C17.3477 20.3507 17.2331 20.3471 17.1544 20.3471C17.0684 20.3471 16.9681 20.3507 16.8535 20.3579C16.7533 20.365 16.6709 20.3686 16.6064 20.3686C16.5921 20.3686 16.585 20.3579 16.585 20.3364C16.585 20.3149 16.5921 20.3042 16.6064 20.3042C16.721 20.3042 16.8339 20.2576 16.9449 20.1645C17.0595 20.0714 17.1633 19.9192 17.2564 19.7079L18.4167 16.9576C18.4239 16.9468 18.44 16.9415 18.4651 16.9415C18.4973 16.9415 18.5188 16.9486 18.5295 16.9629L19.6146 19.9174C19.6576 20.0284 19.6952 20.109 19.7274 20.1591C19.7632 20.2093 19.8116 20.2469 19.8724 20.2719C19.9333 20.2934 20.0229 20.3042 20.141 20.3042ZM17.9279 18.4831H18.7336L18.3523 17.4464L17.9279 18.4831Z" fill="black"/>
<path d="M21.6475 16.4688C21.7871 16.4688 21.9017 16.4974 21.9913 16.5547C22.0808 16.6084 22.1255 16.6729 22.1255 16.7481C22.1255 16.8018 22.1094 16.843 22.0772 16.8716C22.045 16.8967 22.002 16.9092 21.9483 16.9092C21.8946 16.9092 21.8498 16.8949 21.814 16.8663C21.7818 16.834 21.7495 16.7893 21.7173 16.732C21.6779 16.6675 21.6421 16.6209 21.6099 16.5923C21.5776 16.5637 21.5329 16.5493 21.4756 16.5493C21.2106 16.5493 21.0781 16.9415 21.0781 17.7257C21.0781 17.8511 21.0799 17.946 21.0834 18.0104L21.0942 18.3435C21.2589 18.3399 21.4595 18.3292 21.6958 18.3112C21.728 18.3112 21.7442 18.3274 21.7442 18.3596C21.7406 18.3954 21.7209 18.4348 21.6851 18.4778C21.6528 18.5207 21.617 18.5386 21.5776 18.5315C21.5454 18.5279 21.4809 18.5207 21.3843 18.51C21.2876 18.4957 21.1927 18.4849 21.0996 18.4778L21.164 20.4814C21.1676 20.5387 21.1694 20.6211 21.1694 20.7285C21.1694 21.0078 21.1497 21.2281 21.1103 21.3892C21.0709 21.5504 21.0064 21.6668 20.9169 21.7384C20.831 21.81 20.7146 21.8458 20.5678 21.8458C20.4317 21.8458 20.3278 21.8226 20.2562 21.776C20.1846 21.733 20.1488 21.6793 20.1488 21.6149C20.1488 21.5647 20.1649 21.5235 20.1971 21.4913C20.2258 21.4627 20.2705 21.4483 20.3314 21.4483C20.3923 21.4483 20.437 21.4609 20.4657 21.4859C20.4979 21.5146 20.5301 21.5576 20.5624 21.6149C20.5874 21.6578 20.6107 21.6901 20.6322 21.7115C20.6537 21.7366 20.6841 21.7491 20.7235 21.7491C20.7772 21.7491 20.8149 21.7115 20.8363 21.6363C20.8614 21.5647 20.8739 21.4215 20.8739 21.2066C20.8739 21.0598 20.8686 20.8646 20.8578 20.6211L20.7987 18.7249C20.7916 18.6282 20.779 18.5619 20.7611 18.5261C20.7432 18.4867 20.7092 18.4617 20.6591 18.4509C20.6125 18.4366 20.5284 18.4294 20.4066 18.4294C20.3923 18.4294 20.3851 18.4187 20.3851 18.3972C20.3851 18.3757 20.3905 18.365 20.4012 18.365C20.5445 18.365 20.643 18.3488 20.6967 18.3166C20.7504 18.2808 20.7772 18.2163 20.7772 18.1232C20.7701 17.6828 20.7916 17.3461 20.8417 17.1134C20.8954 16.877 20.9832 16.7105 21.1049 16.6138C21.2303 16.5171 21.4111 16.4688 21.6475 16.4688Z" fill="black"/>
<path d="M23.508 18.2414C23.5904 18.2414 23.6692 18.2683 23.7444 18.322C23.8232 18.3757 23.8626 18.4366 23.8626 18.5046C23.8626 18.5548 23.8447 18.5977 23.8089 18.6336C23.7731 18.6658 23.7319 18.6819 23.6853 18.6819C23.6459 18.6819 23.6137 18.6747 23.5886 18.6604C23.5636 18.6461 23.5367 18.6264 23.508 18.6013C23.4901 18.5834 23.4704 18.5691 23.449 18.5583C23.4311 18.544 23.4096 18.5369 23.3845 18.5369C23.3021 18.5369 23.2216 18.6389 23.1428 18.843C23.064 19.0472 22.9977 19.2925 22.944 19.579C22.8939 19.8619 22.867 20.1126 22.8634 20.331C22.8634 20.3561 22.8473 20.3758 22.8151 20.3901C22.7864 20.4044 22.7453 20.4116 22.6915 20.4116C22.6378 20.4116 22.602 20.408 22.5841 20.4008C22.5662 20.3973 22.5555 20.3901 22.5519 20.3794C22.5519 20.365 22.5537 20.3256 22.5573 20.2612C22.5608 20.1931 22.5626 20.0964 22.5626 19.9711L22.5734 18.9773C22.5734 18.63 22.5053 18.4563 22.3692 18.4563C22.2618 18.4563 22.1472 18.5207 22.0255 18.6497L22.0147 18.655C22.004 18.655 21.995 18.6497 21.9879 18.6389C21.9771 18.6282 21.9735 18.6192 21.9771 18.6121C22.0666 18.4975 22.1633 18.4079 22.2672 18.3435C22.3746 18.279 22.4749 18.2468 22.568 18.2468C22.6683 18.2468 22.7435 18.2969 22.7936 18.3972C22.8473 18.4975 22.8724 18.6873 22.8688 18.9666V19.5897C22.9225 19.2137 23.0049 18.895 23.1159 18.6336C23.2269 18.3721 23.3576 18.2414 23.508 18.2414Z" fill="black"/>
<path d="M25.0621 20.417C24.9618 20.417 24.8848 20.3811 24.8311 20.3095C24.781 20.2379 24.7577 20.1323 24.7613 19.9926L24.7774 18.7732C24.781 18.5619 24.7291 18.4563 24.6216 18.4563C24.5357 18.4563 24.4157 18.5422 24.2617 18.7141C24.2546 18.7213 24.2492 18.7249 24.2456 18.7249C24.2313 18.7249 24.2188 18.7195 24.208 18.7088C24.1973 18.6944 24.1955 18.6819 24.2026 18.6712C24.3101 18.5279 24.4103 18.4223 24.5035 18.3542C24.5966 18.2826 24.6933 18.2468 24.7935 18.2468C24.8938 18.2468 24.9672 18.2808 25.0138 18.3488C25.0603 18.4169 25.0836 18.5207 25.0836 18.6604L25.0675 19.8905C25.0675 20.0982 25.1176 20.2021 25.2179 20.2021C25.3074 20.2021 25.422 20.1197 25.5617 19.955C25.5653 19.9514 25.5706 19.9496 25.5778 19.9496C25.5921 19.9496 25.6047 19.9568 25.6154 19.9711C25.6297 19.9819 25.6333 19.9908 25.6261 19.998C25.5151 20.1412 25.4166 20.2469 25.3307 20.3149C25.2448 20.3829 25.1552 20.417 25.0621 20.417ZM24.8741 17.6183C24.7989 17.6183 24.7398 17.5986 24.6968 17.5592C24.6539 17.5162 24.6324 17.4571 24.6324 17.3819C24.6324 17.3139 24.6539 17.2602 24.6968 17.2208C24.7398 17.1814 24.7989 17.1617 24.8741 17.1617C24.9421 17.1617 24.9959 17.1814 25.0353 17.2208C25.0782 17.2602 25.0997 17.3139 25.0997 17.3819C25.0997 17.4571 25.08 17.5162 25.0406 17.5592C25.0012 17.5986 24.9457 17.6183 24.8741 17.6183Z" fill="black"/>
<path d="M26.9248 20.4384C26.7171 20.4384 26.5417 20.3847 26.3984 20.2773C26.2587 20.1699 26.1549 20.0356 26.0868 19.8744C26.0188 19.7097 25.9848 19.5414 25.9848 19.3695C25.9848 19.1367 26.0349 18.9344 26.1352 18.7625C26.2355 18.5906 26.3662 18.4581 26.5273 18.365C26.6921 18.2719 26.8622 18.2253 27.0376 18.2253C27.1916 18.2253 27.3259 18.2575 27.4405 18.322C27.5551 18.3829 27.6124 18.4652 27.6124 18.5691C27.6124 18.6121 27.5981 18.6479 27.5694 18.6765C27.5444 18.7016 27.505 18.7141 27.4513 18.7141C27.3904 18.7141 27.342 18.6998 27.3062 18.6712C27.2704 18.6425 27.2364 18.5995 27.2042 18.5422C27.1254 18.4097 27.0072 18.3435 26.8496 18.3435C26.6634 18.3435 26.5255 18.4241 26.436 18.5852C26.3501 18.7428 26.3071 18.9433 26.3071 19.1868C26.3071 19.4841 26.3787 19.7365 26.522 19.9442C26.6652 20.1484 26.8711 20.2504 27.1397 20.2504C27.308 20.2504 27.4728 20.2003 27.6339 20.1H27.6393C27.65 20.1 27.6608 20.1072 27.6715 20.1215C27.6858 20.1323 27.6894 20.143 27.6822 20.1537C27.5677 20.2504 27.4441 20.3221 27.3116 20.3686C27.1827 20.4152 27.0538 20.4384 26.9248 20.4384Z" fill="black"/>
<path d="M30.4302 19.955C30.4338 19.9514 30.4392 19.9496 30.4463 19.9496C30.4571 19.9496 30.4678 19.9568 30.4786 19.9711C30.4893 19.9819 30.4929 19.9908 30.4893 19.998C30.3855 20.1412 30.2888 20.2469 30.1992 20.3149C30.1133 20.3829 30.0255 20.417 29.936 20.417C29.7355 20.417 29.6352 20.2755 29.6352 19.9926L29.6459 19.3265C29.5278 19.6595 29.372 19.9281 29.1786 20.1323C28.9888 20.3364 28.7865 20.4384 28.5716 20.4384C28.4355 20.4384 28.3245 20.3919 28.2386 20.2988C28.1562 20.2021 28.115 20.0499 28.115 19.8422C28.115 19.5951 28.1741 19.3462 28.2923 19.0955C28.414 18.8413 28.5716 18.6336 28.765 18.4724C28.9584 18.3077 29.1553 18.2253 29.3559 18.2253C29.4311 18.2253 29.5045 18.2378 29.5761 18.2629C29.6513 18.288 29.7176 18.3256 29.7749 18.3757C29.8322 18.3184 29.8662 18.2557 29.8769 18.1877C29.8805 18.1805 29.893 18.177 29.9145 18.177C29.9396 18.177 29.9503 18.1805 29.9468 18.1877L29.936 19.8905C29.9324 20.0982 29.9826 20.2021 30.0864 20.2021C30.176 20.2021 30.2906 20.1197 30.4302 19.955ZM28.7435 20.1752C28.8903 20.1752 29.0318 20.1054 29.1679 19.9657C29.3039 19.8225 29.4132 19.647 29.4955 19.4393C29.5815 19.2316 29.6245 19.0364 29.6245 18.8538C29.6245 18.7213 29.5851 18.6156 29.5063 18.5369C29.4311 18.4545 29.3308 18.4133 29.2055 18.4133C29.0622 18.4133 28.9297 18.4652 28.808 18.5691C28.6862 18.6729 28.5895 18.8162 28.5179 18.9988C28.4463 19.1815 28.4105 19.3856 28.4105 19.6112C28.4105 19.8046 28.4373 19.9478 28.491 20.0409C28.5483 20.1305 28.6325 20.1752 28.7435 20.1752Z" fill="black"/>
<path d="M33.3461 19.9496C33.3604 19.9496 33.3729 19.9568 33.3837 19.9711C33.398 19.9819 33.4016 19.9908 33.3944 19.998C33.2834 20.1412 33.1849 20.2469 33.099 20.3149C33.0166 20.3829 32.9289 20.417 32.8358 20.417C32.6317 20.417 32.5332 20.2755 32.5403 19.9926L32.5457 19.0364C32.5457 18.6353 32.4401 18.4348 32.2288 18.4348C32.0927 18.4348 31.9673 18.5082 31.8528 18.655C31.7417 18.8019 31.6522 19.0185 31.5842 19.305C31.5161 19.5915 31.4803 19.9335 31.4767 20.331C31.4767 20.3561 31.4606 20.3758 31.4284 20.3901C31.3997 20.4044 31.3568 20.4116 31.2995 20.4116C31.2457 20.4116 31.2099 20.408 31.192 20.4008C31.1741 20.3973 31.1616 20.3901 31.1544 20.3794C31.1544 20.365 31.1562 20.3167 31.1598 20.2343C31.167 20.1484 31.1705 20.0606 31.1705 19.9711L31.1813 18.7732C31.1813 18.6658 31.167 18.587 31.1383 18.5369C31.1097 18.4831 31.0703 18.4563 31.0201 18.4563C30.9414 18.4563 30.8214 18.5422 30.6602 18.7141C30.6531 18.7213 30.6477 18.7249 30.6441 18.7249C30.6298 18.7249 30.6173 18.7195 30.6065 18.7088C30.5958 18.6944 30.594 18.6819 30.6011 18.6712C30.7086 18.5279 30.8088 18.4223 30.902 18.3542C30.9951 18.2826 31.0918 18.2468 31.192 18.2468C31.2923 18.2468 31.3639 18.2808 31.4069 18.3488C31.4535 18.4169 31.4767 18.5207 31.4767 18.6604V19.4232C31.5448 19.0472 31.6558 18.7535 31.8098 18.5422C31.9673 18.3309 32.1571 18.2253 32.3792 18.2253C32.5368 18.2253 32.6549 18.2826 32.7337 18.3972C32.8125 18.5082 32.8501 18.6873 32.8465 18.9344L32.8411 19.8905C32.8411 19.998 32.8519 20.0768 32.8734 20.1269C32.8984 20.177 32.9378 20.2021 32.9916 20.2021C33.0739 20.2021 33.1885 20.1197 33.3353 19.955L33.3461 19.9496Z" fill="black"/>
<path d="M35.9962 20.374C35.9103 20.374 35.8136 20.3686 35.7062 20.3579V21.3248C35.7062 21.4501 35.7241 21.5361 35.7599 21.5826C35.7957 21.6328 35.8619 21.6578 35.9586 21.6578C35.9837 21.6578 36.032 21.6542 36.1037 21.6471H36.109C36.1198 21.6471 36.1269 21.656 36.1305 21.6739C36.1341 21.6918 36.1287 21.7026 36.1144 21.7062L35.126 21.8458C35.1117 21.8494 35.1009 21.8405 35.0938 21.819C35.0902 21.7975 35.0956 21.785 35.1099 21.7814C35.1958 21.767 35.2567 21.7474 35.2925 21.7223C35.3319 21.7008 35.357 21.665 35.3677 21.6149C35.3821 21.5647 35.3892 21.4806 35.3892 21.3624L35.3946 18.8108C35.3767 18.8216 35.2997 18.8824 35.1636 18.9935L35.1529 18.9988C35.1385 18.9988 35.126 18.9917 35.1153 18.9773C35.1045 18.963 35.1027 18.9523 35.1099 18.9451C35.1708 18.8878 35.2657 18.8054 35.3946 18.698V18.2951C35.3946 18.288 35.4179 18.2629 35.4644 18.2199C35.511 18.177 35.5522 18.1304 35.588 18.0803C35.6238 18.0301 35.6417 17.9728 35.6417 17.9084C35.6417 17.894 35.6524 17.8869 35.6739 17.8869C35.6954 17.8869 35.7062 17.894 35.7062 17.9084V18.4885C35.9712 18.3345 36.2236 18.2575 36.4636 18.2575C36.6892 18.2575 36.8629 18.3256 36.9846 18.4617C37.1064 18.5977 37.1673 18.7965 37.1673 19.0579C37.1673 19.3014 37.1189 19.5235 37.0222 19.724C36.9255 19.9246 36.7877 20.0839 36.6086 20.2021C36.4331 20.3167 36.229 20.374 35.9962 20.374ZM36.2487 18.4509C36.0732 18.4509 35.8924 18.5028 35.7062 18.6067V20.1323C35.8602 20.1931 36.0088 20.2236 36.152 20.2236C36.4134 20.2236 36.5979 20.1394 36.7053 19.9711C36.8163 19.8028 36.8718 19.5682 36.8718 19.2674C36.8718 18.7231 36.6641 18.4509 36.2487 18.4509Z" fill="black"/>
<path d="M39.0342 18.2414C39.1166 18.2414 39.1953 18.2683 39.2705 18.322C39.3493 18.3757 39.3887 18.4366 39.3887 18.5046C39.3887 18.5548 39.3708 18.5977 39.335 18.6336C39.2992 18.6658 39.258 18.6819 39.2115 18.6819C39.1721 18.6819 39.1398 18.6747 39.1148 18.6604C39.0897 18.6461 39.0628 18.6264 39.0342 18.6013C39.0163 18.5834 38.9966 18.5691 38.9751 18.5583C38.9572 18.544 38.9357 18.5369 38.9106 18.5369C38.8283 18.5369 38.7477 18.6389 38.6689 18.843C38.5901 19.0472 38.5239 19.2925 38.4702 19.579C38.42 19.8619 38.3932 20.1126 38.3896 20.331C38.3896 20.3561 38.3735 20.3758 38.3412 20.3901C38.3126 20.4044 38.2714 20.4116 38.2177 20.4116C38.164 20.4116 38.1282 20.408 38.1103 20.4008C38.0923 20.3973 38.0816 20.3901 38.078 20.3794C38.078 20.365 38.0798 20.3256 38.0834 20.2612C38.087 20.1931 38.0888 20.0964 38.0888 19.9711L38.0995 18.9773C38.0995 18.63 38.0315 18.4563 37.8954 18.4563C37.7879 18.4563 37.6734 18.5207 37.5516 18.6497L37.5408 18.655C37.5301 18.655 37.5212 18.6497 37.514 18.6389C37.5032 18.6282 37.4997 18.6192 37.5032 18.6121C37.5928 18.4975 37.6895 18.4079 37.7933 18.3435C37.9008 18.279 38.001 18.2468 38.0941 18.2468C38.1944 18.2468 38.2696 18.2969 38.3197 18.3972C38.3735 18.4975 38.3985 18.6873 38.395 18.9666V19.5897C38.4487 19.2137 38.531 18.895 38.6421 18.6336C38.7531 18.3721 38.8838 18.2414 39.0342 18.2414Z" fill="black"/>
<path d="M40.5882 20.417C40.488 20.417 40.411 20.3811 40.3573 20.3095C40.3071 20.2379 40.2838 20.1323 40.2874 19.9926L40.3035 18.7732C40.3071 18.5619 40.2552 18.4563 40.1478 18.4563C40.0618 18.4563 39.9419 18.5422 39.7879 18.7141C39.7807 18.7213 39.7753 18.7249 39.7717 18.7249C39.7574 18.7249 39.7449 18.7195 39.7341 18.7088C39.7234 18.6944 39.7216 18.6819 39.7288 18.6712C39.8362 18.5279 39.9365 18.4223 40.0296 18.3542C40.1227 18.2826 40.2194 18.2468 40.3197 18.2468C40.4199 18.2468 40.4933 18.2808 40.5399 18.3488C40.5865 18.4169 40.6097 18.5207 40.6097 18.6604L40.5936 19.8905C40.5936 20.0982 40.6438 20.2021 40.744 20.2021C40.8336 20.2021 40.9482 20.1197 41.0878 19.955C41.0914 19.9514 41.0968 19.9496 41.1039 19.9496C41.1183 19.9496 41.1308 19.9568 41.1415 19.9711C41.1559 19.9819 41.1594 19.9908 41.1523 19.998C41.0413 20.1412 40.9428 20.2469 40.8568 20.3149C40.7709 20.3829 40.6814 20.417 40.5882 20.417ZM40.4002 17.6183C40.325 17.6183 40.2659 17.5986 40.223 17.5592C40.18 17.5162 40.1585 17.4571 40.1585 17.3819C40.1585 17.3139 40.18 17.2602 40.223 17.2208C40.2659 17.1814 40.325 17.1617 40.4002 17.1617C40.4683 17.1617 40.522 17.1814 40.5614 17.2208C40.6044 17.2602 40.6259 17.3139 40.6259 17.3819C40.6259 17.4571 40.6062 17.5162 40.5668 17.5592C40.5274 17.5986 40.4719 17.6183 40.4002 17.6183Z" fill="black"/>
<path d="M44.0517 19.9496C44.0661 19.9496 44.0786 19.9568 44.0893 19.9711C44.1037 19.9819 44.1073 19.9908 44.1001 19.998C43.9891 20.1412 43.8906 20.2469 43.8046 20.3149C43.7223 20.3829 43.6345 20.417 43.5414 20.417C43.3373 20.417 43.2388 20.2755 43.246 19.9926L43.2514 19.0364C43.2514 18.6353 43.1457 18.4348 42.9344 18.4348C42.7983 18.4348 42.673 18.5082 42.5584 18.655C42.4474 18.8019 42.3579 19.0185 42.2898 19.305C42.2218 19.5915 42.186 19.9335 42.1824 20.331C42.1824 20.3561 42.1663 20.3758 42.134 20.3901C42.1054 20.4044 42.0624 20.4116 42.0051 20.4116C41.9514 20.4116 41.9156 20.408 41.8977 20.4008C41.8798 20.3973 41.8672 20.3901 41.8601 20.3794C41.8601 20.365 41.8619 20.3167 41.8655 20.2343C41.8726 20.1484 41.8762 20.0606 41.8762 19.9711L41.8869 18.7732C41.8869 18.6658 41.8726 18.587 41.844 18.5369C41.8153 18.4831 41.7759 18.4563 41.7258 18.4563C41.647 18.4563 41.527 18.5422 41.3659 18.7141C41.3587 18.7213 41.3534 18.7249 41.3498 18.7249C41.3354 18.7249 41.3229 18.7195 41.3122 18.7088C41.3014 18.6944 41.2996 18.6819 41.3068 18.6712C41.4142 18.5279 41.5145 18.4223 41.6076 18.3542C41.7007 18.2826 41.7974 18.2468 41.8977 18.2468C41.998 18.2468 42.0696 18.2808 42.1126 18.3488C42.1591 18.4169 42.1824 18.5207 42.1824 18.6604V19.4232C42.2504 19.0472 42.3614 18.7535 42.5154 18.5422C42.673 18.3309 42.8628 18.2253 43.0848 18.2253C43.2424 18.2253 43.3606 18.2826 43.4394 18.3972C43.5182 18.5082 43.5558 18.6873 43.5522 18.9344L43.5468 19.8905C43.5468 19.998 43.5575 20.0768 43.579 20.1269C43.6041 20.177 43.6435 20.2021 43.6972 20.2021C43.7796 20.2021 43.8942 20.1197 44.041 19.955L44.0517 19.9496Z" fill="black"/>
<path d="M45.878 19.9872C45.8887 19.9872 45.8995 19.9944 45.9102 20.0087C45.921 20.0195 45.9228 20.0284 45.9156 20.0356C45.7652 20.1752 45.6291 20.2773 45.5074 20.3418C45.3892 20.4026 45.2692 20.4331 45.1474 20.4331C45.0114 20.4331 44.8986 20.3973 44.809 20.3256C44.7195 20.254 44.6765 20.1376 44.6801 19.9765L44.6855 18.7249C44.6819 18.6318 44.6747 18.5655 44.664 18.5261C44.6532 18.4867 44.63 18.4617 44.5942 18.4509C44.5619 18.4366 44.5046 18.4294 44.4223 18.4294C44.4079 18.4294 44.399 18.4187 44.3954 18.3972C44.3954 18.3757 44.4026 18.365 44.4169 18.365C44.553 18.365 44.6622 18.3274 44.7446 18.2522C44.8305 18.1734 44.8807 18.0731 44.895 17.9513C44.895 17.9406 44.9093 17.9352 44.938 17.9352C44.9738 17.9352 44.9917 17.9406 44.9917 17.9513V18.3488C45.1242 18.3453 45.3731 18.3327 45.7383 18.3112C45.7527 18.3112 45.7634 18.3166 45.7706 18.3274C45.7813 18.3345 45.7867 18.3453 45.7867 18.3596C45.7831 18.3954 45.7634 18.4348 45.7276 18.4778C45.6954 18.5207 45.6578 18.5386 45.6148 18.5315C45.3677 18.4993 45.16 18.4814 44.9917 18.4778L44.9863 19.81C44.9863 19.9568 45.0114 20.0642 45.0615 20.1323C45.1152 20.1967 45.2083 20.2289 45.3408 20.2289C45.4411 20.2289 45.5324 20.2093 45.6148 20.1699C45.6972 20.1269 45.7831 20.066 45.8726 19.9872H45.878Z" fill="black"/>
<path d="M46.928 20.4277C46.7705 20.4277 46.6308 20.3937 46.5091 20.3256C46.3873 20.2576 46.3264 20.177 46.3264 20.0839C46.3264 20.0374 46.3407 20.0033 46.3694 19.9819C46.4016 19.9568 46.4392 19.9442 46.4822 19.9442C46.5216 19.9442 46.5556 19.9568 46.5843 19.9819C46.6129 20.0033 46.6451 20.0374 46.6809 20.0839C46.7418 20.1591 46.7991 20.2164 46.8528 20.2558C46.9101 20.2916 46.9871 20.3095 47.0838 20.3095C47.1877 20.3095 47.2665 20.2827 47.3202 20.2289C47.3739 20.1752 47.4008 20.0982 47.4008 19.998C47.3972 19.8655 47.3524 19.7544 47.2665 19.6649C47.1841 19.5754 47.0605 19.4787 46.8958 19.3748C46.7311 19.271 46.6057 19.1743 46.5198 19.0848C46.4374 18.9952 46.3962 18.886 46.3962 18.7571C46.3962 18.6031 46.4661 18.4796 46.6057 18.3865C46.7454 18.2898 46.903 18.2414 47.0785 18.2414C47.2217 18.2414 47.3452 18.2683 47.4491 18.322C47.5565 18.3721 47.6103 18.4366 47.6103 18.5154C47.6103 18.5583 47.5959 18.5924 47.5673 18.6174C47.5386 18.6425 47.5028 18.655 47.4598 18.655C47.4133 18.655 47.3739 18.6461 47.3417 18.6282C47.313 18.6067 47.2754 18.5727 47.2289 18.5261C47.1751 18.4724 47.1232 18.4312 47.0731 18.4026C47.0229 18.3739 46.9585 18.3596 46.8797 18.3596C46.8009 18.3596 46.7382 18.3775 46.6917 18.4133C46.6487 18.4491 46.6272 18.5046 46.6272 18.5798C46.6272 18.6837 46.6666 18.7786 46.7454 18.8645C46.8278 18.9469 46.9477 19.0418 47.1053 19.1492C47.2844 19.2746 47.4187 19.3838 47.5082 19.4769C47.5977 19.57 47.6425 19.6828 47.6425 19.8153C47.6425 19.9156 47.612 20.0141 47.5512 20.1108C47.4939 20.2039 47.4097 20.2809 47.2987 20.3418C47.1913 20.3991 47.0677 20.4277 46.928 20.4277Z" fill="black"/>
<path d="M53.4744 18.3274C53.5639 18.3274 53.6087 18.3829 53.6087 18.4939C53.6087 18.5834 53.5836 18.6712 53.5334 18.7571C53.4869 18.8395 53.4224 18.9075 53.3401 18.9612C53.2577 19.0149 53.17 19.0418 53.0769 19.0418C52.9766 19.0418 52.8477 19.0042 52.6901 18.929C52.6256 19.4196 52.4609 19.7938 52.1959 20.0517C51.9345 20.3059 51.6086 20.4331 51.2182 20.4331C50.9747 20.4331 50.7563 20.3758 50.5629 20.2612C50.3731 20.143 50.2245 19.9872 50.117 19.7938C50.0096 19.6005 49.9559 19.391 49.9559 19.1653C49.9559 19.0687 49.9666 18.972 49.9881 18.8753C50.0311 18.6855 50.1135 18.5136 50.2352 18.3596C50.357 18.2056 50.5002 18.0856 50.665 17.9997C50.8297 17.9137 50.9962 17.8708 51.1645 17.8708C51.3436 17.8708 51.4904 17.9209 51.605 18.0212C51.8199 17.7812 51.9273 17.5717 51.9273 17.3927C51.9273 17.3246 51.9166 17.2727 51.8951 17.2369C51.8736 17.1975 51.8432 17.1617 51.8038 17.1295C51.7751 17.1008 51.7536 17.0758 51.7393 17.0543C51.725 17.0328 51.7178 17.0023 51.7178 16.9629C51.7178 16.9092 51.7339 16.8663 51.7662 16.834C51.7984 16.8018 51.8396 16.7857 51.8897 16.7857C51.9685 16.7857 52.033 16.8215 52.0831 16.8931C52.1332 16.9647 52.1583 17.0596 52.1583 17.1778C52.1583 17.3784 52.0831 17.5825 51.9327 17.7902C51.7823 17.9979 51.6014 18.1931 51.3901 18.3757C51.1788 18.5548 50.9138 18.7643 50.5951 19.0042L50.2836 19.2459C50.3194 19.4393 50.3928 19.6112 50.5038 19.7616C50.6148 19.9084 50.7473 20.023 50.9013 20.1054C51.0589 20.1842 51.2236 20.2236 51.3955 20.2236C51.7214 20.2236 51.9918 20.109 52.2066 19.8798C52.4251 19.6506 52.5576 19.3211 52.6041 18.8914L52.5021 18.8377C52.3517 18.7589 52.2317 18.7016 52.1422 18.6658C52.0526 18.6264 51.9667 18.6067 51.8843 18.6067C51.8342 18.6067 51.793 18.6174 51.7608 18.6389C51.7321 18.6604 51.7178 18.6873 51.7178 18.7195C51.7178 18.7625 51.7321 18.8126 51.7608 18.8699C51.7894 18.9344 51.8038 18.9809 51.8038 19.0096C51.8038 19.0418 51.793 19.0722 51.7715 19.1009C51.75 19.126 51.7178 19.1385 51.6748 19.1385C51.6319 19.1385 51.5961 19.126 51.5674 19.1009C51.5423 19.0722 51.5298 19.0275 51.5298 18.9666C51.5298 18.8735 51.5584 18.784 51.6157 18.698C51.6766 18.6121 51.7536 18.544 51.8467 18.4939C51.9434 18.4402 52.0419 18.4133 52.1422 18.4133C52.2317 18.4133 52.323 18.433 52.4161 18.4724C52.5128 18.5082 52.631 18.5619 52.7707 18.6336C52.8853 18.6944 52.9837 18.7428 53.0661 18.7786C53.1485 18.8108 53.2237 18.8269 53.2917 18.8269C53.3383 18.8269 53.3759 18.818 53.4045 18.8001C53.4368 18.7786 53.4529 18.7535 53.4529 18.7249C53.4529 18.6926 53.435 18.6515 53.3992 18.6013C53.3777 18.5727 53.3616 18.5476 53.3508 18.5261C53.3401 18.5046 53.3347 18.4796 53.3347 18.4509C53.3347 18.3685 53.3812 18.3274 53.4744 18.3274ZM50.2836 18.7034C50.2657 18.818 50.2567 18.9147 50.2567 18.9935C50.2567 19.0328 50.2603 19.0884 50.2674 19.16C50.3641 19.0812 50.4644 19.0024 50.5683 18.9236C50.8941 18.6729 51.1484 18.4652 51.331 18.3005C51.2415 18.1107 51.0947 18.0158 50.8906 18.0158C50.7509 18.0158 50.6256 18.0821 50.5145 18.2146C50.4071 18.3435 50.3301 18.5064 50.2836 18.7034Z" fill="black"/>
<path d="M57.349 20.4331C56.93 20.4331 56.5826 20.3471 56.3069 20.1752C56.0347 19.9998 55.836 19.7777 55.7106 19.5091C55.5853 19.2406 55.5226 18.9576 55.5226 18.6604C55.5226 18.3274 55.6086 18.0319 55.7805 17.7741C55.9524 17.5127 56.178 17.3103 56.4573 17.1671C56.7402 17.0238 57.0428 16.9522 57.3651 16.9522C57.5406 16.9522 57.7161 16.9701 57.8915 17.0059C58.067 17.0382 58.2085 17.0829 58.3159 17.1402C58.3446 17.1581 58.3625 17.1742 58.3696 17.1886C58.3768 17.2029 58.3822 17.2297 58.3857 17.2691L58.4448 17.8654C58.4448 17.8797 58.4359 17.8887 58.418 17.8923C58.4036 17.8923 58.3929 17.8869 58.3857 17.8761C58.2998 17.6004 58.1512 17.3981 57.9399 17.2691C57.7322 17.1366 57.4761 17.0704 57.1717 17.0704C56.9139 17.0704 56.6901 17.1295 56.5003 17.2476C56.314 17.3658 56.1708 17.5341 56.0705 17.7526C55.9703 17.9675 55.9201 18.2199 55.9201 18.51C55.9201 18.8466 55.9846 19.1564 56.1135 19.4393C56.2424 19.7222 56.4161 19.946 56.6346 20.1108C56.8566 20.2755 57.1019 20.3579 57.3705 20.3579C57.5961 20.3579 57.802 20.288 57.9882 20.1484C58.1744 20.0051 58.3231 19.792 58.4341 19.5091C58.4377 19.4948 58.4484 19.4894 58.4663 19.493C58.4842 19.4966 58.4932 19.5038 58.4932 19.5145L58.4395 20.1108C58.4323 20.1573 58.4251 20.186 58.418 20.1967C58.4108 20.2075 58.3911 20.22 58.3589 20.2343C58.0366 20.3668 57.7 20.4331 57.349 20.4331Z" fill="black"/>
<path d="M60.3723 18.2414C60.4546 18.2414 60.5334 18.2683 60.6086 18.322C60.6874 18.3757 60.7268 18.4366 60.7268 18.5046C60.7268 18.5548 60.7089 18.5977 60.6731 18.6336C60.6373 18.6658 60.5961 18.6819 60.5495 18.6819C60.5101 18.6819 60.4779 18.6747 60.4528 18.6604C60.4278 18.6461 60.4009 18.6264 60.3723 18.6013C60.3544 18.5834 60.3347 18.5691 60.3132 18.5583C60.2953 18.544 60.2738 18.5369 60.2487 18.5369C60.1664 18.5369 60.0858 18.6389 60.007 18.843C59.9282 19.0472 59.862 19.2925 59.8082 19.579C59.7581 19.8619 59.7312 20.1126 59.7277 20.331C59.7277 20.3561 59.7115 20.3758 59.6793 20.3901C59.6507 20.4044 59.6095 20.4116 59.5558 20.4116C59.5021 20.4116 59.4662 20.408 59.4483 20.4008C59.4304 20.3973 59.4197 20.3901 59.4161 20.3794C59.4161 20.365 59.4179 20.3256 59.4215 20.2612C59.4251 20.1931 59.4268 20.0964 59.4268 19.9711L59.4376 18.9773C59.4376 18.63 59.3695 18.4563 59.2335 18.4563C59.126 18.4563 59.0114 18.5207 58.8897 18.6497L58.8789 18.655C58.8682 18.655 58.8592 18.6497 58.8521 18.6389C58.8413 18.6282 58.8377 18.6192 58.8413 18.6121C58.9309 18.4975 59.0275 18.4079 59.1314 18.3435C59.2388 18.279 59.3391 18.2468 59.4322 18.2468C59.5325 18.2468 59.6077 18.2969 59.6578 18.3972C59.7115 18.4975 59.7366 18.6873 59.733 18.9666V19.5897C59.7868 19.2137 59.8691 18.895 59.9801 18.6336C60.0912 18.3721 60.2219 18.2414 60.3723 18.2414Z" fill="black"/>
<path d="M63.4077 19.955C63.4113 19.9514 63.4167 19.9496 63.4238 19.9496C63.4346 19.9496 63.4453 19.9568 63.4561 19.9711C63.4668 19.9819 63.4704 19.9908 63.4668 19.998C63.3629 20.1412 63.2663 20.2469 63.1767 20.3149C63.0908 20.3829 63.003 20.417 62.9135 20.417C62.713 20.417 62.6127 20.2755 62.6127 19.9926L62.6234 19.3265C62.5053 19.6595 62.3495 19.9281 62.1561 20.1323C61.9663 20.3364 61.764 20.4384 61.5491 20.4384C61.413 20.4384 61.302 20.3919 61.216 20.2988C61.1337 20.2021 61.0925 20.0499 61.0925 19.8422C61.0925 19.5951 61.1516 19.3462 61.2698 19.0955C61.3915 18.8413 61.5491 18.6336 61.7425 18.4724C61.9359 18.3077 62.1328 18.2253 62.3334 18.2253C62.4086 18.2253 62.482 18.2378 62.5536 18.2629C62.6288 18.288 62.6951 18.3256 62.7524 18.3757C62.8097 18.3184 62.8437 18.2557 62.8544 18.1877C62.858 18.1805 62.8705 18.177 62.892 18.177C62.9171 18.177 62.9278 18.1805 62.9243 18.1877L62.9135 19.8905C62.9099 20.0982 62.9601 20.2021 63.0639 20.2021C63.1534 20.2021 63.268 20.1197 63.4077 19.955ZM61.721 20.1752C61.8678 20.1752 62.0093 20.1054 62.1454 19.9657C62.2814 19.8225 62.3907 19.647 62.473 19.4393C62.559 19.2316 62.6019 19.0364 62.6019 18.8538C62.6019 18.7213 62.5626 18.6156 62.4838 18.5369C62.4086 18.4545 62.3083 18.4133 62.183 18.4133C62.0397 18.4133 61.9072 18.4652 61.7854 18.5691C61.6637 18.6729 61.567 18.8162 61.4954 18.9988C61.4238 19.1815 61.3879 19.3856 61.3879 19.6112C61.3879 19.8046 61.4148 19.9478 61.4685 20.0409C61.5258 20.1305 61.61 20.1752 61.721 20.1752Z" fill="black"/>
<path d="M66.6459 19.9872C66.6566 19.9872 66.6692 19.9944 66.6835 20.0087C66.6978 20.0195 66.6996 20.0284 66.6889 20.0356C66.542 20.1752 66.4077 20.2773 66.286 20.3418C66.1678 20.4026 66.0496 20.4331 65.9314 20.4331C65.7918 20.4331 65.6754 20.3973 65.5823 20.3256C65.4928 20.254 65.4498 20.1376 65.4534 19.9765L65.4587 18.7249C65.4587 18.6425 65.448 18.5852 65.4265 18.553C65.405 18.5207 65.3746 18.501 65.3352 18.4939C65.2958 18.4831 65.2224 18.476 65.1149 18.4724L64.3683 18.4563L64.4327 20.4814C64.4363 20.5423 64.4381 20.6265 64.4381 20.7339C64.4381 21.0132 64.4184 21.2335 64.379 21.3946C64.3396 21.5558 64.277 21.6704 64.191 21.7384C64.1051 21.81 63.9887 21.8458 63.8418 21.8458C63.7093 21.8458 63.6073 21.8226 63.5357 21.776C63.4605 21.733 63.4211 21.6793 63.4175 21.6149C63.4103 21.5647 63.4246 21.5235 63.4605 21.4913C63.4927 21.4627 63.5392 21.4483 63.6001 21.4483C63.661 21.4483 63.7058 21.4609 63.7344 21.4859C63.7666 21.5146 63.7989 21.5576 63.8311 21.6149C63.8562 21.6578 63.8794 21.6901 63.9009 21.7115C63.9224 21.7366 63.9529 21.7491 63.9923 21.7491C64.046 21.7491 64.0836 21.7115 64.1051 21.6363C64.1301 21.5647 64.1427 21.4215 64.1427 21.2066C64.1427 21.0598 64.1373 20.8646 64.1265 20.6211L64.0675 18.7249C64.0603 18.6282 64.0478 18.5619 64.0299 18.5261C64.012 18.4867 63.9779 18.4617 63.9278 18.4509C63.8777 18.4366 63.7917 18.4294 63.67 18.4294C63.6556 18.4294 63.6485 18.4187 63.6485 18.3972C63.6485 18.3757 63.6556 18.365 63.67 18.365C63.8132 18.365 63.9117 18.3488 63.9654 18.3166C64.0191 18.2808 64.046 18.2163 64.046 18.1232C64.0388 17.6828 64.0603 17.3461 64.1104 17.1134C64.1642 16.877 64.2519 16.7105 64.3736 16.6138C64.499 16.5171 64.6798 16.4688 64.9162 16.4688C65.0523 16.4688 65.1633 16.4974 65.2492 16.5547C65.3388 16.6084 65.3871 16.6729 65.3943 16.7481C65.3943 16.8018 65.3782 16.843 65.3459 16.8716C65.3137 16.8967 65.2707 16.9092 65.217 16.9092C65.1633 16.9092 65.1203 16.8949 65.0881 16.8663C65.0559 16.8376 65.0218 16.7928 64.986 16.732C64.9466 16.6675 64.9108 16.6209 64.8786 16.5923C64.8464 16.5637 64.8016 16.5493 64.7443 16.5493C64.4793 16.5493 64.3468 16.9415 64.3468 17.7257C64.3468 17.8511 64.3486 17.946 64.3522 18.0104L64.3629 18.3596C64.7568 18.3596 65.02 18.356 65.1525 18.3488C65.3029 18.3488 65.4229 18.313 65.5124 18.2414C65.6056 18.1662 65.6593 18.0695 65.6736 17.9513C65.6736 17.937 65.6879 17.9299 65.7166 17.9299C65.7309 17.9299 65.7434 17.9316 65.7542 17.9352C65.7649 17.9388 65.7703 17.9442 65.7703 17.9513V18.3488C65.91 18.3453 66.1571 18.3327 66.5116 18.3112C66.5259 18.3112 66.5384 18.3166 66.5492 18.3274C66.5599 18.3345 66.5653 18.3453 66.5653 18.3596C66.5581 18.3954 66.5367 18.4348 66.5008 18.4778C66.4686 18.5207 66.4328 18.5386 66.3934 18.5315C66.1463 18.4993 65.9368 18.4814 65.7649 18.4778L65.7595 19.81C65.756 19.9568 65.7828 20.0642 65.8401 20.1323C65.8974 20.1967 65.9887 20.2289 66.1141 20.2289C66.2215 20.2289 66.3146 20.2093 66.3934 20.1699C66.4722 20.1269 66.5546 20.066 66.6405 19.9872H66.6459Z" fill="black"/>
<path d="M67.6998 20.4277C67.5422 20.4277 67.4026 20.3937 67.2808 20.3256C67.159 20.2576 67.0982 20.177 67.0982 20.0839C67.0982 20.0374 67.1125 20.0033 67.1411 19.9819C67.1734 19.9568 67.211 19.9442 67.2539 19.9442C67.2933 19.9442 67.3274 19.9568 67.356 19.9819C67.3846 20.0033 67.4169 20.0374 67.4527 20.0839C67.5136 20.1591 67.5709 20.2164 67.6246 20.2558C67.6819 20.2916 67.7589 20.3095 67.8556 20.3095C67.9594 20.3095 68.0382 20.2827 68.0919 20.2289C68.1456 20.1752 68.1725 20.0982 68.1725 19.998C68.1689 19.8655 68.1242 19.7544 68.0382 19.6649C67.9558 19.5754 67.8323 19.4787 67.6676 19.3748C67.5028 19.271 67.3775 19.1743 67.2915 19.0848C67.2092 18.9952 67.168 18.886 67.168 18.7571C67.168 18.6031 67.2378 18.4796 67.3775 18.3865C67.5172 18.2898 67.6747 18.2414 67.8502 18.2414C67.9934 18.2414 68.117 18.2683 68.2208 18.322C68.3283 18.3721 68.382 18.4366 68.382 18.5154C68.382 18.5583 68.3677 18.5924 68.339 18.6174C68.3104 18.6425 68.2746 18.655 68.2316 18.655C68.185 18.655 68.1456 18.6461 68.1134 18.6282C68.0848 18.6067 68.0472 18.5727 68.0006 18.5261C67.9469 18.4724 67.895 18.4312 67.8448 18.4026C67.7947 18.3739 67.7302 18.3596 67.6514 18.3596C67.5727 18.3596 67.51 18.3775 67.4634 18.4133C67.4205 18.4491 67.399 18.5046 67.399 18.5798C67.399 18.6837 67.4384 18.7786 67.5172 18.8645C67.5995 18.9469 67.7195 19.0418 67.8771 19.1492C68.0561 19.2746 68.1904 19.3838 68.2799 19.4769C68.3695 19.57 68.4142 19.6828 68.4142 19.8153C68.4142 19.9156 68.3838 20.0141 68.3229 20.1108C68.2656 20.2039 68.1814 20.2809 68.0704 20.3418C67.963 20.3991 67.8395 20.4277 67.6998 20.4277Z" fill="black"/>
<path d="M70.9023 19.1572H78.248" stroke="#202020" stroke-width="0.472222" stroke-linecap="round"/>
</svg>
