<svg width="240" height="62" viewBox="0 0 240 62" fill="none" xmlns="http://www.w3.org/2000/svg">
<path d="M14.6967 4.77166V31.1112H9.41608V4.77166H0V0H24.1128V4.77166H14.6967Z" fill="white"/>
<path d="M39.123 31.1112V0H44.4037V13.4879H59.8002V0H65.0809V31.1112H59.8002V18.3868H44.4037V31.1112H39.123Z" fill="white"/>
<path d="M87.3633 24.0492L84.2458 31.1112H78.647L92.3894 0H97.9882L111.667 31.1112H106.068L102.951 24.0492H87.3633ZM100.851 19.1503L95.1888 6.36222L89.5264 19.1503H100.851Z" fill="white"/>
<path d="M148.606 0H153.823V31.1112H148.161L130.537 8.39812V31.1112H125.257V0H130.537L148.606 23.2221V0Z" fill="white"/>
<path d="M176.149 24.0492L173.031 31.1112H167.432L181.175 0H186.774L200.452 31.1112H194.854L191.736 24.0492H176.149ZM189.637 19.1503L183.974 6.36222L178.312 19.1503H189.637Z" fill="white"/>
<path d="M226.83 26.4668C229.248 26.4668 231.157 25.6397 232.556 23.9855C233.998 22.3314 234.719 20.0834 234.719 17.2416V0H240V17.4325C240 21.8436 238.791 25.2792 236.374 27.7393C233.956 30.1993 230.775 31.4293 226.83 31.4293C222.886 31.4293 219.705 30.1993 217.287 27.7393C214.869 25.2792 213.66 21.8436 213.66 17.4325V0H218.877V17.2416C218.877 20.1258 219.599 22.3738 221.041 23.9855C222.44 25.6397 224.37 26.4668 226.83 26.4668Z" fill="white"/>
<path d="M19.0645 53.6553H39.8051" stroke="white" stroke-linecap="round"/>
<path d="M56.8708 56.8928C56.9011 56.8928 56.9163 56.9232 56.9163 56.9839C56.9163 57.0445 56.9011 57.0749 56.8708 57.0749C56.6989 57.0749 56.441 57.0647 56.0972 57.0445C55.6928 57.0243 55.3793 57.0142 55.1569 57.0142C54.9344 57.0142 54.6412 57.0243 54.2772 57.0445C53.9536 57.0647 53.7059 57.0749 53.534 57.0749C53.4935 57.0749 53.4733 57.0445 53.4733 56.9839C53.4733 56.9232 53.4935 56.8928 53.534 56.8928C53.898 56.8928 54.1558 56.8575 54.3075 56.7867C54.4592 56.7159 54.535 56.5946 54.535 56.4227C54.535 56.2912 54.4845 56.0839 54.3833 55.8008L53.0183 52.0697H50.4854L49.2568 55.0728C49.0647 55.548 48.9687 55.9171 48.9687 56.18C48.9687 56.453 49.0647 56.6401 49.2568 56.7412C49.4591 56.8423 49.7573 56.8928 50.1517 56.8928C50.1921 56.8928 50.2124 56.9232 50.2124 56.9839C50.2124 57.0445 50.1871 57.0749 50.1365 57.0749C50.0152 57.0749 49.7725 57.0647 49.4085 57.0445C48.9838 57.0243 48.6603 57.0142 48.4378 57.0142C48.1951 57.0142 47.912 57.0243 47.5884 57.0445C47.3053 57.0647 47.0728 57.0749 46.8907 57.0749C46.8503 57.0749 46.8301 57.0445 46.8301 56.9839C46.8301 56.9232 46.8503 56.8928 46.8907 56.8928C47.2143 56.8928 47.5328 56.7614 47.8463 56.4985C48.1698 56.2356 48.4631 55.8059 48.726 55.2093L52.0021 47.4437C52.0223 47.4134 52.0678 47.3982 52.1386 47.3982C52.2296 47.3982 52.2903 47.4184 52.3206 47.4589L55.3844 55.8008C55.5057 56.1143 55.6119 56.3418 55.7029 56.4833C55.804 56.6249 55.9405 56.7311 56.1124 56.8018C56.2843 56.8625 56.5371 56.8928 56.8708 56.8928ZM50.6219 51.7512H52.897L51.8201 48.8239L50.6219 51.7512Z" fill="white"/>
<path d="M61.1242 46.0635C61.5186 46.0635 61.8421 46.1444 62.0949 46.3062C62.3477 46.4578 62.4741 46.6398 62.4741 46.8522C62.4741 47.0038 62.4286 47.1201 62.3376 47.201C62.2466 47.2718 62.1252 47.3072 61.9736 47.3072C61.8219 47.3072 61.6955 47.2667 61.5944 47.1858C61.5034 47.0948 61.4124 46.9685 61.3214 46.8067C61.2102 46.6247 61.109 46.4932 61.018 46.4123C60.927 46.3314 60.8006 46.291 60.6389 46.291C59.8906 46.291 59.5165 47.3982 59.5165 49.6126C59.5165 49.9665 59.5215 50.2345 59.5317 50.4165L59.562 51.3568C60.0271 51.3467 60.5934 51.3164 61.2607 51.2658C61.3517 51.2658 61.3972 51.3113 61.3972 51.4023C61.3871 51.5034 61.3315 51.6147 61.2304 51.736C61.1394 51.8573 61.0383 51.9079 60.927 51.8877C60.836 51.8776 60.654 51.8573 60.381 51.827C60.108 51.7866 59.8401 51.7562 59.5772 51.736L59.7592 57.3934C59.7693 57.5552 59.7743 57.7877 59.7743 58.0911C59.7743 58.8798 59.7187 59.5016 59.6075 59.9566C59.4963 60.4116 59.3143 60.7403 59.0615 60.9425C58.8188 61.1447 58.4902 61.2458 58.0756 61.2458C57.6914 61.2458 57.3981 61.1801 57.1959 61.0487C56.9937 60.9273 56.8926 60.7757 56.8926 60.5936C56.8926 60.4521 56.9381 60.3358 57.0291 60.2448C57.11 60.1639 57.2364 60.1235 57.4082 60.1235C57.5801 60.1235 57.7065 60.1589 57.7874 60.2296C57.8784 60.3105 57.9694 60.4319 58.0604 60.5936C58.1312 60.715 58.1969 60.806 58.2576 60.8667C58.3183 60.9374 58.4042 60.9728 58.5155 60.9728C58.6671 60.9728 58.7733 60.8667 58.834 60.6543C58.9047 60.4521 58.9401 60.0476 58.9401 59.4409C58.9401 59.0264 58.925 58.4753 58.8946 57.7877L58.7278 52.4337C58.7076 52.1607 58.6722 51.9736 58.6216 51.8725C58.5711 51.7613 58.475 51.6905 58.3334 51.6602C58.202 51.6197 57.9644 51.5995 57.6206 51.5995C57.5801 51.5995 57.5599 51.5692 57.5599 51.5085C57.5599 51.4478 57.5751 51.4175 57.6054 51.4175C58.0099 51.4175 58.2879 51.372 58.4396 51.281C58.5913 51.1799 58.6671 50.9979 58.6671 50.735C58.6469 49.4913 58.7076 48.5408 58.8491 47.8835C59.0008 47.2162 59.2485 46.746 59.5923 46.473C59.9462 46.2 60.4569 46.0635 61.1242 46.0635Z" fill="white"/>
<path d="M66.3776 51.0686C66.6102 51.0686 66.8326 51.1445 67.045 51.2962C67.2674 51.4478 67.3787 51.6197 67.3787 51.8118C67.3787 51.9534 67.3281 52.0747 67.227 52.1759C67.1259 52.2669 67.0096 52.3124 66.8781 52.3124C66.7669 52.3124 66.6759 52.2921 66.6051 52.2517C66.5343 52.2112 66.4585 52.1556 66.3776 52.0849C66.3271 52.0343 66.2715 51.9938 66.2108 51.9635C66.1602 51.9231 66.0996 51.9028 66.0288 51.9028C65.7962 51.9028 65.5687 52.191 65.3463 52.7674C65.1238 53.3437 64.9367 54.0364 64.7851 54.8453C64.6435 55.6441 64.5677 56.3519 64.5576 56.9687C64.5576 57.0395 64.5121 57.0951 64.4211 57.1355C64.3402 57.176 64.2239 57.1962 64.0722 57.1962C63.9205 57.1962 63.8194 57.1861 63.7689 57.1659C63.7183 57.1557 63.688 57.1355 63.6779 57.1052C63.6779 57.0647 63.6829 56.9535 63.693 56.7715C63.7031 56.5794 63.7082 56.3064 63.7082 55.9525L63.7385 53.1466C63.7385 52.1657 63.5464 51.6753 63.1622 51.6753C62.8588 51.6753 62.5353 51.8573 62.1915 52.2214L62.1611 52.2365C62.1308 52.2365 62.1055 52.2214 62.0853 52.191C62.055 52.1607 62.0449 52.1354 62.055 52.1152C62.3078 51.7916 62.5808 51.5388 62.874 51.3568C63.1773 51.1748 63.4605 51.0838 63.7234 51.0838C64.0065 51.0838 64.2188 51.2254 64.3604 51.5085C64.5121 51.7916 64.5828 52.3275 64.5727 53.1162V54.8756C64.7244 53.8139 64.957 52.914 65.2704 52.1759C65.5839 51.4377 65.9529 51.0686 66.3776 51.0686Z" fill="white"/>
<path d="M70.7656 57.2114C70.4824 57.2114 70.265 57.1102 70.1134 56.908C69.9718 56.7058 69.9061 56.4075 69.9162 56.0132L69.9617 52.5702C69.9718 51.9736 69.8252 51.6753 69.5219 51.6753C69.2792 51.6753 68.9404 51.918 68.5057 52.4034C68.4854 52.4236 68.4703 52.4337 68.4602 52.4337C68.4197 52.4337 68.3843 52.4185 68.354 52.3882C68.3236 52.3477 68.3186 52.3124 68.3388 52.282C68.6422 51.8776 68.9253 51.5793 69.1882 51.3872C69.4511 51.1849 69.7241 51.0838 70.0072 51.0838C70.2903 51.0838 70.4976 51.1799 70.6291 51.372C70.7605 51.5641 70.8262 51.8573 70.8262 52.2517L70.7807 55.725C70.7807 56.3114 70.9223 56.6047 71.2054 56.6047C71.4582 56.6047 71.7818 56.3721 72.1761 55.907C72.1862 55.8969 72.2014 55.8918 72.2216 55.8918C72.2621 55.8918 72.2974 55.912 72.3278 55.9525C72.3682 55.9828 72.3783 56.0081 72.3581 56.0283C72.0447 56.4328 71.7666 56.7311 71.5239 56.9232C71.2812 57.1153 71.0285 57.2114 70.7656 57.2114ZM70.2347 49.3093C70.0224 49.3093 69.8555 49.2536 69.7342 49.1424C69.6129 49.0211 69.5522 48.8542 69.5522 48.6419C69.5522 48.4498 69.6129 48.2981 69.7342 48.1869C69.8555 48.0757 70.0224 48.02 70.2347 48.02C70.4268 48.02 70.5785 48.0757 70.6897 48.1869C70.8111 48.2981 70.8717 48.4498 70.8717 48.6419C70.8717 48.8542 70.8161 49.0211 70.7049 49.1424C70.5937 49.2536 70.4369 49.3093 70.2347 49.3093Z" fill="white"/>
<path d="M76.025 57.272C75.4386 57.272 74.9431 57.1204 74.5386 56.817C74.1443 56.5137 73.8511 56.1345 73.6589 55.6795C73.4668 55.2143 73.3708 54.7391 73.3708 54.2538C73.3708 53.5965 73.5123 53.0252 73.7954 52.5399C74.0786 52.0545 74.4476 51.6804 74.9026 51.4175C75.3678 51.1546 75.8481 51.0231 76.3435 51.0231C76.7783 51.0231 77.1575 51.1142 77.4811 51.2962C77.8046 51.4681 77.9664 51.7006 77.9664 51.9938C77.9664 52.1152 77.926 52.2163 77.8451 52.2972C77.7743 52.368 77.6631 52.4034 77.5114 52.4034C77.3395 52.4034 77.203 52.3629 77.1019 52.282C77.0008 52.2011 76.9047 52.0798 76.8137 51.918C76.5913 51.5439 76.2576 51.3568 75.8127 51.3568C75.2869 51.3568 74.8976 51.5843 74.6448 52.0393C74.4021 52.4843 74.2808 53.0505 74.2808 53.7381C74.2808 54.5773 74.483 55.2902 74.8875 55.8766C75.2919 56.453 75.8733 56.7412 76.6317 56.7412C77.1069 56.7412 77.5721 56.5996 78.0271 56.3165H78.0423C78.0726 56.3165 78.1029 56.3367 78.1333 56.3772C78.1737 56.4075 78.1838 56.4378 78.1636 56.4682C77.84 56.7412 77.4912 56.9434 77.1171 57.0749C76.753 57.2063 76.389 57.272 76.025 57.272Z" fill="white"/>
<path d="M85.9226 55.907C85.9327 55.8969 85.9478 55.8918 85.9681 55.8918C85.9984 55.8918 86.0287 55.912 86.0591 55.9525C86.0894 55.9828 86.0995 56.0081 86.0894 56.0283C85.7962 56.4328 85.5232 56.7311 85.2704 56.9232C85.0277 57.1153 84.78 57.2114 84.5272 57.2114C83.9609 57.2114 83.6778 56.812 83.6778 56.0132L83.7082 54.1324C83.3745 55.0728 82.9346 55.8311 82.3886 56.4075C81.8527 56.9839 81.2814 57.272 80.6747 57.272C80.2905 57.272 79.977 57.1406 79.7343 56.8777C79.5018 56.6047 79.3855 56.1749 79.3855 55.5885C79.3855 54.8908 79.5523 54.188 79.886 53.4802C80.2298 52.7623 80.6747 52.1759 81.2207 51.7208C81.7668 51.2557 82.3229 51.0231 82.8891 51.0231C83.1015 51.0231 83.3087 51.0585 83.511 51.1293C83.7233 51.2001 83.9104 51.3063 84.0722 51.4478C84.2339 51.286 84.33 51.1091 84.3603 50.917C84.3705 50.8968 84.4058 50.8866 84.4665 50.8866C84.5373 50.8866 84.5676 50.8968 84.5575 50.917L84.5272 55.725C84.5171 56.3114 84.6586 56.6047 84.9519 56.6047C85.2046 56.6047 85.5282 56.3721 85.9226 55.907ZM81.1601 56.5288C81.5746 56.5288 81.974 56.3317 82.3583 55.9373C82.7425 55.5329 83.0509 55.0374 83.2835 54.4509C83.5261 53.8645 83.6475 53.3134 83.6475 52.7977C83.6475 52.4236 83.5363 52.1253 83.3138 51.9028C83.1015 51.6703 82.8183 51.554 82.4644 51.554C82.06 51.554 81.6859 51.7006 81.3421 51.9938C80.9983 52.2871 80.7253 52.6915 80.523 53.2072C80.3208 53.7229 80.2197 54.2993 80.2197 54.9363C80.2197 55.4823 80.2955 55.8868 80.4472 56.1497C80.609 56.4024 80.8466 56.5288 81.1601 56.5288Z" fill="white"/>
<path d="M94.1556 55.8918C94.1961 55.8918 94.2314 55.912 94.2618 55.9525C94.3022 55.9828 94.3123 56.0081 94.2921 56.0283C93.9787 56.4328 93.7006 56.7311 93.4579 56.9232C93.2254 57.1153 92.9776 57.2114 92.7147 57.2114C92.1384 57.2114 91.8603 56.812 91.8805 56.0132L91.8957 53.3134C91.8957 52.1809 91.5974 51.6147 91.0008 51.6147C90.6166 51.6147 90.2627 51.822 89.9391 52.2365C89.6257 52.6511 89.3729 53.2628 89.1808 54.0718C88.9887 54.8807 88.8875 55.8463 88.8774 56.9687C88.8774 57.0395 88.8319 57.0951 88.7409 57.1355C88.66 57.176 88.5387 57.1962 88.3769 57.1962C88.2252 57.1962 88.1241 57.1861 88.0736 57.1659C88.023 57.1557 87.9876 57.1355 87.9674 57.1052C87.9674 57.0647 87.9725 56.9282 87.9826 56.6957C88.0028 56.453 88.0129 56.2053 88.0129 55.9525L88.0432 52.5702C88.0432 52.2669 88.0028 52.0444 87.9219 51.9028C87.841 51.7512 87.7298 51.6753 87.5882 51.6753C87.3658 51.6753 87.027 51.918 86.572 52.4034C86.5518 52.4236 86.5366 52.4337 86.5265 52.4337C86.4861 52.4337 86.4507 52.4185 86.4203 52.3882C86.39 52.3477 86.385 52.3124 86.4052 52.282C86.7085 51.8776 86.9916 51.5793 87.2545 51.3872C87.5174 51.1849 87.7904 51.0838 88.0736 51.0838C88.3567 51.0838 88.5589 51.1799 88.6803 51.372C88.8117 51.5641 88.8774 51.8573 88.8774 52.2517V54.4054C89.0695 53.3437 89.383 52.5146 89.8178 51.918C90.2627 51.3214 90.7986 51.0231 91.4255 51.0231C91.8704 51.0231 92.2041 51.1849 92.4266 51.5085C92.649 51.822 92.7552 52.3275 92.7451 53.0252L92.7299 55.725C92.7299 56.0283 92.7602 56.2508 92.8209 56.3923C92.8917 56.5339 93.0029 56.6047 93.1546 56.6047C93.3871 56.6047 93.7107 56.3721 94.1253 55.907L94.1556 55.8918Z" fill="white"/>
<path d="M101.638 57.09C101.396 57.09 101.123 57.0749 100.819 57.0445V59.7746C100.819 60.1285 100.87 60.3712 100.971 60.5026C101.072 60.6442 101.259 60.715 101.532 60.715C101.603 60.715 101.739 60.7049 101.942 60.6846H101.957C101.987 60.6846 102.007 60.7099 102.018 60.7605C102.028 60.811 102.012 60.8414 101.972 60.8515L99.1813 61.2458C99.1408 61.2559 99.1105 61.2307 99.0903 61.17C99.0802 61.1093 99.0953 61.0739 99.1358 61.0638C99.3785 61.0234 99.5504 60.9678 99.6515 60.897C99.7627 60.8363 99.8335 60.7352 99.8638 60.5936C99.9043 60.4521 99.9245 60.2145 99.9245 59.8808L99.9397 52.6764C99.8891 52.7067 99.6717 52.8786 99.2875 53.1921L99.2571 53.2072C99.2167 53.2072 99.1813 53.187 99.151 53.1466C99.1206 53.1061 99.1156 53.0758 99.1358 53.0556C99.3077 52.8938 99.5756 52.6612 99.9397 52.3579V51.2203C99.9397 51.2001 100.005 51.1293 100.137 51.008C100.268 50.8866 100.385 50.7552 100.486 50.6136C100.587 50.4721 100.637 50.3103 100.637 50.1283C100.637 50.0878 100.668 50.0676 100.728 50.0676C100.789 50.0676 100.819 50.0878 100.819 50.1283V51.7663C101.568 51.3315 102.28 51.1142 102.958 51.1142C103.595 51.1142 104.085 51.3063 104.429 51.6905C104.773 52.0747 104.945 52.6359 104.945 53.3741C104.945 54.0616 104.808 54.6886 104.535 55.2548C104.262 55.821 103.873 56.271 103.367 56.6047C102.872 56.9282 102.296 57.09 101.638 57.09ZM102.351 51.6602C101.856 51.6602 101.345 51.8068 100.819 52.1V56.4075C101.254 56.5794 101.674 56.6653 102.078 56.6653C102.816 56.6653 103.337 56.4277 103.64 55.9525C103.954 55.4772 104.111 54.8149 104.111 53.9656C104.111 52.4286 103.524 51.6602 102.351 51.6602Z" fill="white"/>
<path d="M110.216 51.0686C110.449 51.0686 110.671 51.1445 110.883 51.2962C111.106 51.4478 111.217 51.6197 111.217 51.8118C111.217 51.9534 111.167 52.0747 111.065 52.1759C110.964 52.2669 110.848 52.3124 110.717 52.3124C110.605 52.3124 110.514 52.2921 110.444 52.2517C110.373 52.2112 110.297 52.1556 110.216 52.0849C110.166 52.0343 110.11 51.9938 110.049 51.9635C109.999 51.9231 109.938 51.9028 109.867 51.9028C109.635 51.9028 109.407 52.191 109.185 52.7674C108.962 53.3437 108.775 54.0364 108.624 54.8453C108.482 55.6441 108.406 56.3519 108.396 56.9687C108.396 57.0395 108.351 57.0951 108.26 57.1355C108.179 57.176 108.062 57.1962 107.911 57.1962C107.759 57.1962 107.658 57.1861 107.607 57.1659C107.557 57.1557 107.526 57.1355 107.516 57.1052C107.516 57.0647 107.521 56.9535 107.532 56.7715C107.542 56.5794 107.547 56.3064 107.547 55.9525L107.577 53.1466C107.577 52.1657 107.385 51.6753 107.001 51.6753C106.697 51.6753 106.374 51.8573 106.03 52.2214L106 52.2365C105.969 52.2365 105.944 52.2214 105.924 52.191C105.893 52.1607 105.883 52.1354 105.893 52.1152C106.146 51.7916 106.419 51.5388 106.713 51.3568C107.016 51.1748 107.299 51.0838 107.562 51.0838C107.845 51.0838 108.057 51.2254 108.199 51.5085C108.351 51.7916 108.421 52.3275 108.411 53.1162V54.8756C108.563 53.8139 108.795 52.914 109.109 52.1759C109.422 51.4377 109.791 51.0686 110.216 51.0686Z" fill="white"/>
<path d="M114.604 57.2114C114.321 57.2114 114.104 57.1102 113.952 56.908C113.81 56.7058 113.745 56.4075 113.755 56.0132L113.8 52.5702C113.81 51.9736 113.664 51.6753 113.36 51.6753C113.118 51.6753 112.779 51.918 112.344 52.4034C112.324 52.4236 112.309 52.4337 112.299 52.4337C112.258 52.4337 112.223 52.4185 112.192 52.3882C112.162 52.3477 112.157 52.3124 112.177 52.282C112.481 51.8776 112.764 51.5793 113.027 51.3872C113.29 51.1849 113.563 51.0838 113.846 51.0838C114.129 51.0838 114.336 51.1799 114.468 51.372C114.599 51.5641 114.665 51.8573 114.665 52.2517L114.619 55.725C114.619 56.3114 114.761 56.6047 115.044 56.6047C115.297 56.6047 115.62 56.3721 116.015 55.907C116.025 55.8969 116.04 55.8918 116.06 55.8918C116.101 55.8918 116.136 55.912 116.166 55.9525C116.207 55.9828 116.217 56.0081 116.197 56.0283C115.883 56.4328 115.605 56.7311 115.362 56.9232C115.12 57.1153 114.867 57.2114 114.604 57.2114ZM114.073 49.3093C113.861 49.3093 113.694 49.2536 113.573 49.1424C113.451 49.0211 113.391 48.8542 113.391 48.6419C113.391 48.4498 113.451 48.2981 113.573 48.1869C113.694 48.0757 113.861 48.02 114.073 48.02C114.265 48.02 114.417 48.0757 114.528 48.1869C114.65 48.2981 114.71 48.4498 114.71 48.6419C114.71 48.8542 114.655 49.0211 114.543 49.1424C114.432 49.2536 114.275 49.3093 114.073 49.3093Z" fill="white"/>
<path d="M124.383 55.8918C124.424 55.8918 124.459 55.912 124.49 55.9525C124.53 55.9828 124.54 56.0081 124.52 56.0283C124.206 56.4328 123.928 56.7311 123.686 56.9232C123.453 57.1153 123.205 57.2114 122.942 57.2114C122.366 57.2114 122.088 56.812 122.108 56.0132L122.123 53.3134C122.123 52.1809 121.825 51.6147 121.229 51.6147C120.844 51.6147 120.49 51.822 120.167 52.2365C119.853 52.6511 119.601 53.2628 119.409 54.0718C119.216 54.8807 119.115 55.8463 119.105 56.9687C119.105 57.0395 119.06 57.0951 118.969 57.1355C118.888 57.176 118.766 57.1962 118.605 57.1962C118.453 57.1962 118.352 57.1861 118.301 57.1659C118.251 57.1557 118.215 57.1355 118.195 57.1052C118.195 57.0647 118.2 56.9282 118.21 56.6957C118.231 56.453 118.241 56.2053 118.241 55.9525L118.271 52.5702C118.271 52.2669 118.231 52.0444 118.15 51.9028C118.069 51.7512 117.958 51.6753 117.816 51.6753C117.593 51.6753 117.255 51.918 116.8 52.4034C116.78 52.4236 116.764 52.4337 116.754 52.4337C116.714 52.4337 116.678 52.4185 116.648 52.3882C116.618 52.3477 116.613 52.3124 116.633 52.282C116.936 51.8776 117.219 51.5793 117.482 51.3872C117.745 51.1849 118.018 51.0838 118.301 51.0838C118.584 51.0838 118.787 51.1799 118.908 51.372C119.039 51.5641 119.105 51.8573 119.105 52.2517V54.4054C119.297 53.3437 119.611 52.5146 120.046 51.918C120.49 51.3214 121.026 51.0231 121.653 51.0231C122.098 51.0231 122.432 51.1849 122.654 51.5085C122.877 51.822 122.983 52.3275 122.973 53.0252L122.958 55.725C122.958 56.0283 122.988 56.2508 123.049 56.3923C123.119 56.5339 123.231 56.6047 123.382 56.6047C123.615 56.6047 123.938 56.3721 124.353 55.907L124.383 55.8918Z" fill="white"/>
<path d="M129.54 55.998C129.57 55.998 129.601 56.0182 129.631 56.0587C129.661 56.089 129.666 56.1143 129.646 56.1345C129.221 56.5288 128.837 56.817 128.493 56.999C128.16 57.1709 127.821 57.2569 127.477 57.2569C127.093 57.2569 126.774 57.1557 126.522 56.9535C126.269 56.7513 126.147 56.4227 126.158 55.9677L126.173 52.4337C126.163 52.1708 126.142 51.9837 126.112 51.8725C126.082 51.7613 126.016 51.6905 125.915 51.6602C125.824 51.6197 125.662 51.5995 125.43 51.5995C125.389 51.5995 125.364 51.5692 125.354 51.5085C125.354 51.4478 125.374 51.4175 125.414 51.4175C125.799 51.4175 126.107 51.3113 126.34 51.099C126.582 50.8765 126.724 50.5934 126.764 50.2496C126.764 50.2193 126.805 50.2041 126.886 50.2041C126.987 50.2041 127.037 50.2193 127.037 50.2496V51.372C127.411 51.3619 128.114 51.3265 129.145 51.2658C129.186 51.2658 129.216 51.281 129.236 51.3113C129.267 51.3315 129.282 51.3619 129.282 51.4023C129.272 51.5034 129.216 51.6147 129.115 51.736C129.024 51.8573 128.918 51.9079 128.797 51.8877C128.099 51.7967 127.512 51.7461 127.037 51.736L127.022 55.4975C127.022 55.912 127.093 56.2154 127.234 56.4075C127.386 56.5895 127.649 56.6805 128.023 56.6805C128.306 56.6805 128.564 56.6249 128.797 56.5137C129.029 56.3923 129.272 56.2204 129.525 55.998H129.54Z" fill="white"/>
<path d="M132.505 57.2417C132.06 57.2417 131.665 57.1456 131.322 56.9535C130.978 56.7614 130.806 56.5339 130.806 56.271C130.806 56.1395 130.846 56.0435 130.927 55.9828C131.018 55.912 131.124 55.8766 131.246 55.8766C131.357 55.8766 131.453 55.912 131.534 55.9828C131.615 56.0435 131.706 56.1395 131.807 56.271C131.979 56.4833 132.141 56.6451 132.292 56.7563C132.454 56.8575 132.672 56.908 132.945 56.908C133.238 56.908 133.46 56.8322 133.612 56.6805C133.764 56.5288 133.839 56.3114 133.839 56.0283C133.829 55.6542 133.703 55.3407 133.46 55.088C133.228 54.8352 132.879 54.5622 132.414 54.2689C131.949 53.9757 131.595 53.7027 131.352 53.4499C131.119 53.1971 131.003 52.8887 131.003 52.5247C131.003 52.0899 131.2 51.7411 131.595 51.4782C131.989 51.2052 132.434 51.0686 132.929 51.0686C133.334 51.0686 133.683 51.1445 133.976 51.2962C134.279 51.4377 134.431 51.6197 134.431 51.8422C134.431 51.9635 134.39 52.0596 134.31 52.1304C134.229 52.2011 134.128 52.2365 134.006 52.2365C133.875 52.2365 133.764 52.2112 133.673 52.1607C133.592 52.1 133.485 52.004 133.354 51.8725C133.202 51.7208 133.056 51.6046 132.914 51.5237C132.773 51.4428 132.591 51.4023 132.368 51.4023C132.146 51.4023 131.969 51.4529 131.837 51.554C131.716 51.6551 131.655 51.8118 131.655 52.0242C131.655 52.3174 131.767 52.5854 131.989 52.828C132.222 53.0606 132.56 53.3286 133.005 53.6319C133.511 53.9858 133.89 54.2942 134.143 54.5571C134.396 54.82 134.522 55.1385 134.522 55.5126C134.522 55.7958 134.436 56.0738 134.264 56.3468C134.102 56.6097 133.865 56.8271 133.551 56.999C133.248 57.1608 132.899 57.2417 132.505 57.2417Z" fill="white"/>
<path d="M150.988 51.3113C151.241 51.3113 151.368 51.4681 151.368 51.7815C151.368 52.0343 151.297 52.282 151.155 52.5247C151.024 52.7573 150.842 52.9494 150.609 53.1011C150.377 53.2527 150.129 53.3286 149.866 53.3286C149.583 53.3286 149.219 53.2224 148.774 53.01C148.592 54.3953 148.127 55.452 147.379 56.18C146.64 56.8979 145.72 57.2569 144.618 57.2569C143.931 57.2569 143.314 57.0951 142.768 56.7715C142.232 56.4378 141.812 55.998 141.509 55.452C141.206 54.9059 141.054 54.3144 141.054 53.6774C141.054 53.4044 141.084 53.1314 141.145 52.8584C141.266 52.3225 141.499 51.8371 141.843 51.4023C142.186 50.9675 142.591 50.6288 143.056 50.3861C143.521 50.1435 143.991 50.0221 144.466 50.0221C144.972 50.0221 145.387 50.1637 145.71 50.4468C146.317 49.7693 146.62 49.1778 146.62 48.6722C146.62 48.4801 146.59 48.3335 146.529 48.2324C146.469 48.1212 146.383 48.02 146.271 47.929C146.19 47.8481 146.13 47.7774 146.089 47.7167C146.049 47.656 146.029 47.5701 146.029 47.4589C146.029 47.3072 146.074 47.1858 146.165 47.0948C146.256 47.0038 146.372 46.9583 146.514 46.9583C146.737 46.9583 146.919 47.0595 147.06 47.2617C147.202 47.4639 147.272 47.7319 147.272 48.0655C147.272 48.6318 147.06 49.2081 146.635 49.7946C146.211 50.3811 145.7 50.9321 145.104 51.4478C144.507 51.9534 143.759 52.5449 142.859 53.2224L141.979 53.9049C142.08 54.4509 142.287 54.9363 142.601 55.361C142.914 55.7755 143.289 56.0991 143.723 56.3317C144.168 56.5541 144.633 56.6653 145.119 56.6653C146.039 56.6653 146.802 56.3418 147.409 55.6946C148.026 55.0475 148.4 54.1173 148.531 52.9039L148.243 52.7522C147.818 52.5298 147.48 52.368 147.227 52.2669C146.974 52.1556 146.731 52.1 146.499 52.1C146.357 52.1 146.241 52.1304 146.15 52.191C146.069 52.2517 146.029 52.3275 146.029 52.4185C146.029 52.5399 146.069 52.6814 146.15 52.8432C146.231 53.0252 146.271 53.1567 146.271 53.2376C146.271 53.3286 146.241 53.4145 146.18 53.4954C146.12 53.5662 146.029 53.6016 145.907 53.6016C145.786 53.6016 145.685 53.5662 145.604 53.4954C145.533 53.4145 145.498 53.2881 145.498 53.1162C145.498 52.8533 145.579 52.6005 145.741 52.3579C145.912 52.1152 146.13 51.9231 146.393 51.7815C146.666 51.6298 146.944 51.554 147.227 51.554C147.48 51.554 147.738 51.6096 148 51.7208C148.273 51.822 148.607 51.9736 149.001 52.1759C149.325 52.3477 149.603 52.4843 149.836 52.5854C150.068 52.6764 150.281 52.7219 150.473 52.7219C150.604 52.7219 150.71 52.6966 150.791 52.646C150.882 52.5854 150.928 52.5146 150.928 52.4337C150.928 52.3427 150.877 52.2264 150.776 52.0849C150.715 52.004 150.67 51.9332 150.64 51.8725C150.609 51.8118 150.594 51.7411 150.594 51.6602C150.594 51.4276 150.725 51.3113 150.988 51.3113ZM141.979 52.373C141.929 52.6966 141.903 52.9696 141.903 53.1921C141.903 53.3033 141.913 53.46 141.934 53.6622C142.207 53.4398 142.49 53.2173 142.783 52.9949C143.703 52.2871 144.421 51.7006 144.937 51.2355C144.684 50.6996 144.269 50.4316 143.693 50.4316C143.299 50.4316 142.945 50.6187 142.631 50.9928C142.328 51.3568 142.111 51.8169 141.979 52.373Z" fill="white"/>
<path d="M161.929 57.2569C160.745 57.2569 159.765 57.0142 158.986 56.5288C158.218 56.0334 157.656 55.4065 157.303 54.6481C156.949 53.8897 156.772 53.0909 156.772 52.2517C156.772 51.3113 157.014 50.4771 157.5 49.7491C157.985 49.011 158.622 48.4397 159.411 48.0352C160.21 47.6308 161.064 47.4285 161.974 47.4285C162.469 47.4285 162.965 47.4791 163.46 47.5802C163.956 47.6712 164.355 47.7976 164.659 47.9594C164.74 48.0099 164.79 48.0554 164.81 48.0959C164.831 48.1363 164.846 48.2122 164.856 48.3234L165.023 50.0069C165.023 50.0474 164.997 50.0727 164.947 50.0828C164.906 50.0828 164.876 50.0676 164.856 50.0373C164.613 49.2587 164.193 48.6874 163.597 48.3234C163.01 47.9493 162.287 47.7622 161.428 47.7622C160.7 47.7622 160.068 47.929 159.532 48.2627C159.006 48.5964 158.602 49.0716 158.319 49.6884C158.036 50.2951 157.894 51.008 157.894 51.827C157.894 52.7775 158.076 53.6521 158.44 54.4509C158.804 55.2497 159.295 55.8817 159.911 56.3468C160.538 56.812 161.231 57.0445 161.989 57.0445C162.626 57.0445 163.208 56.8473 163.733 56.453C164.259 56.0485 164.679 55.4469 164.992 54.6481C165.002 54.6077 165.033 54.5925 165.083 54.6026C165.134 54.6127 165.159 54.6329 165.159 54.6633L165.007 56.3468C164.987 56.4783 164.967 56.5592 164.947 56.5895C164.927 56.6198 164.871 56.6552 164.78 56.6957C163.87 57.0698 162.919 57.2569 161.929 57.2569Z" fill="white"/>
<path d="M170.465 51.0686C170.697 51.0686 170.92 51.1445 171.132 51.2962C171.355 51.4478 171.466 51.6197 171.466 51.8118C171.466 51.9534 171.415 52.0747 171.314 52.1759C171.213 52.2669 171.097 52.3124 170.965 52.3124C170.854 52.3124 170.763 52.2921 170.692 52.2517C170.622 52.2112 170.546 52.1556 170.465 52.0849C170.414 52.0343 170.359 51.9938 170.298 51.9635C170.247 51.9231 170.187 51.9028 170.116 51.9028C169.883 51.9028 169.656 52.191 169.433 52.7674C169.211 53.3437 169.024 54.0364 168.872 54.8453C168.731 55.6441 168.655 56.3519 168.645 56.9687C168.645 57.0395 168.599 57.0951 168.508 57.1355C168.427 57.176 168.311 57.1962 168.159 57.1962C168.008 57.1962 167.907 57.1861 167.856 57.1659C167.806 57.1557 167.775 57.1355 167.765 57.1052C167.765 57.0647 167.77 56.9535 167.78 56.7715C167.79 56.5794 167.795 56.3064 167.795 55.9525L167.826 53.1466C167.826 52.1657 167.634 51.6753 167.249 51.6753C166.946 51.6753 166.622 51.8573 166.279 52.2214L166.248 52.2365C166.218 52.2365 166.193 52.2214 166.173 52.191C166.142 52.1607 166.132 52.1354 166.142 52.1152C166.395 51.7916 166.668 51.5388 166.961 51.3568C167.265 51.1748 167.548 51.0838 167.811 51.0838C168.094 51.0838 168.306 51.2254 168.448 51.5085C168.599 51.7916 168.67 52.3275 168.66 53.1162V54.8756C168.812 53.8139 169.044 52.914 169.358 52.1759C169.671 51.4377 170.04 51.0686 170.465 51.0686Z" fill="white"/>
<path d="M179.035 55.907C179.046 55.8969 179.061 55.8918 179.081 55.8918C179.111 55.8918 179.142 55.912 179.172 55.9525C179.202 55.9828 179.212 56.0081 179.202 56.0283C178.909 56.4328 178.636 56.7311 178.383 56.9232C178.141 57.1153 177.893 57.2114 177.64 57.2114C177.074 57.2114 176.791 56.812 176.791 56.0132L176.821 54.1324C176.487 55.0728 176.048 55.8311 175.502 56.4075C174.966 56.9839 174.394 57.272 173.788 57.272C173.403 57.272 173.09 57.1406 172.847 56.8777C172.615 56.6047 172.498 56.1749 172.498 55.5885C172.498 54.8908 172.665 54.188 172.999 53.4802C173.343 52.7623 173.788 52.1759 174.334 51.7208C174.88 51.2557 175.436 51.0231 176.002 51.0231C176.214 51.0231 176.422 51.0585 176.624 51.1293C176.836 51.2001 177.023 51.3063 177.185 51.4478C177.347 51.286 177.443 51.1091 177.473 50.917C177.483 50.8968 177.519 50.8866 177.579 50.8866C177.65 50.8866 177.681 50.8968 177.67 50.917L177.64 55.725C177.63 56.3114 177.772 56.6047 178.065 56.6047C178.318 56.6047 178.641 56.3721 179.035 55.907ZM174.273 56.5288C174.688 56.5288 175.087 56.3317 175.471 55.9373C175.855 55.5329 176.164 55.0374 176.396 54.4509C176.639 53.8645 176.76 53.3134 176.76 52.7977C176.76 52.4236 176.649 52.1253 176.427 51.9028C176.214 51.6703 175.931 51.554 175.577 51.554C175.173 51.554 174.799 51.7006 174.455 51.9938C174.111 52.2871 173.838 52.6915 173.636 53.2072C173.434 53.7229 173.333 54.2993 173.333 54.9363C173.333 55.4823 173.408 55.8868 173.56 56.1497C173.722 56.4024 173.96 56.5288 174.273 56.5288Z" fill="white"/>
<path d="M188.179 55.998C188.209 55.998 188.244 56.0182 188.285 56.0587C188.325 56.089 188.33 56.1143 188.3 56.1345C187.885 56.5288 187.506 56.817 187.162 56.999C186.829 57.1709 186.495 57.2569 186.161 57.2569C185.767 57.2569 185.438 57.1557 185.175 56.9535C184.923 56.7513 184.801 56.4227 184.811 55.9677L184.827 52.4337C184.827 52.2011 184.796 52.0393 184.736 51.9483C184.675 51.8573 184.589 51.8017 184.478 51.7815C184.367 51.7512 184.159 51.7309 183.856 51.7208L181.748 51.6753L181.93 57.3934C181.94 57.5653 181.945 57.8029 181.945 58.1062C181.945 58.8949 181.889 59.5168 181.778 59.9718C181.667 60.4268 181.49 60.7504 181.247 60.9425C181.004 61.1447 180.676 61.2458 180.261 61.2458C179.887 61.2458 179.599 61.1801 179.397 61.0487C179.184 60.9273 179.073 60.7757 179.063 60.5936C179.043 60.4521 179.083 60.3358 179.184 60.2448C179.275 60.1639 179.407 60.1235 179.579 60.1235C179.751 60.1235 179.877 60.1589 179.958 60.2296C180.049 60.3105 180.14 60.4319 180.231 60.5936C180.302 60.715 180.367 60.806 180.428 60.8667C180.489 60.9374 180.575 60.9728 180.686 60.9728C180.838 60.9728 180.944 60.8667 181.004 60.6543C181.075 60.4521 181.111 60.0476 181.111 59.4409C181.111 59.0264 181.095 58.4753 181.065 57.7877L180.898 52.4337C180.878 52.1607 180.843 51.9736 180.792 51.8725C180.742 51.7613 180.646 51.6905 180.504 51.6602C180.362 51.6197 180.12 51.5995 179.776 51.5995C179.735 51.5995 179.715 51.5692 179.715 51.5085C179.715 51.4478 179.735 51.4175 179.776 51.4175C180.18 51.4175 180.458 51.372 180.61 51.281C180.762 51.1799 180.838 50.9979 180.838 50.735C180.817 49.4913 180.878 48.5408 181.02 47.8835C181.171 47.2162 181.419 46.746 181.763 46.473C182.117 46.2 182.627 46.0635 183.295 46.0635C183.679 46.0635 183.992 46.1444 184.235 46.3062C184.488 46.4578 184.624 46.6398 184.645 46.8522C184.645 47.0038 184.599 47.1201 184.508 47.201C184.417 47.2718 184.296 47.3072 184.144 47.3072C183.992 47.3072 183.871 47.2667 183.78 47.1858C183.689 47.105 183.593 46.9786 183.492 46.8067C183.381 46.6247 183.28 46.4932 183.189 46.4123C183.098 46.3314 182.971 46.291 182.809 46.291C182.061 46.291 181.687 47.3982 181.687 49.6126C181.687 49.9665 181.692 50.2345 181.702 50.4165L181.732 51.4023C182.845 51.4023 183.588 51.3922 183.962 51.372C184.387 51.372 184.725 51.2709 184.978 51.0686C185.241 50.8563 185.393 50.5833 185.433 50.2496C185.433 50.2092 185.474 50.189 185.555 50.189C185.595 50.189 185.63 50.194 185.661 50.2041C185.691 50.2142 185.706 50.2294 185.706 50.2496V51.372C186.101 51.3619 186.798 51.3265 187.799 51.2658C187.84 51.2658 187.875 51.281 187.906 51.3113C187.936 51.3315 187.951 51.3619 187.951 51.4023C187.931 51.5034 187.87 51.6147 187.769 51.736C187.678 51.8573 187.577 51.9079 187.466 51.8877C186.768 51.7967 186.176 51.7461 185.691 51.736L185.676 55.4975C185.666 55.912 185.742 56.2154 185.903 56.4075C186.065 56.5895 186.323 56.6805 186.677 56.6805C186.98 56.6805 187.243 56.6249 187.466 56.5137C187.688 56.3923 187.921 56.2204 188.163 55.998H188.179Z" fill="white"/>
<path d="M191.154 57.2417C190.709 57.2417 190.315 57.1456 189.971 56.9535C189.627 56.7614 189.456 56.5339 189.456 56.271C189.456 56.1395 189.496 56.0435 189.577 55.9828C189.668 55.912 189.774 55.8766 189.895 55.8766C190.007 55.8766 190.103 55.912 190.184 55.9828C190.264 56.0435 190.355 56.1395 190.457 56.271C190.628 56.4833 190.79 56.6451 190.942 56.7563C191.104 56.8575 191.321 56.908 191.594 56.908C191.887 56.908 192.11 56.8322 192.262 56.6805C192.413 56.5288 192.489 56.3114 192.489 56.0283C192.479 55.6542 192.353 55.3407 192.11 55.088C191.877 54.8352 191.528 54.5622 191.063 54.2689C190.598 53.9757 190.244 53.7027 190.002 53.4499C189.769 53.1971 189.653 52.8887 189.653 52.5247C189.653 52.0899 189.85 51.7411 190.244 51.4782C190.639 51.2052 191.084 51.0686 191.579 51.0686C191.983 51.0686 192.332 51.1445 192.626 51.2962C192.929 51.4377 193.081 51.6197 193.081 51.8422C193.081 51.9635 193.04 52.0596 192.959 52.1304C192.878 52.2011 192.777 52.2365 192.656 52.2365C192.524 52.2365 192.413 52.2112 192.322 52.1607C192.241 52.1 192.135 52.004 192.004 51.8725C191.852 51.7208 191.705 51.6046 191.564 51.5237C191.422 51.4428 191.24 51.4023 191.018 51.4023C190.795 51.4023 190.618 51.4529 190.487 51.554C190.366 51.6551 190.305 51.8118 190.305 52.0242C190.305 52.3174 190.416 52.5854 190.639 52.828C190.871 53.0606 191.21 53.3286 191.655 53.6319C192.16 53.9858 192.54 54.2942 192.792 54.5571C193.045 54.82 193.172 55.1385 193.172 55.5126C193.172 55.7958 193.086 56.0738 192.914 56.3468C192.752 56.6097 192.514 56.8271 192.201 56.999C191.897 57.1608 191.549 57.2417 191.154 57.2417Z" fill="white"/>
<path d="M200.195 53.6553H220.936" stroke="white" stroke-linecap="round"/>
</svg>
